<?xml version="1.0" encoding="utf-8"?>
<svg viewBox="0 0 146.465 148.148" xmlns="http://www.w3.org/2000/svg">
  <g id="svgg" transform="matrix(0.427064, 0, 0.006345, 0.427064, -0.104816, 1.47601)" style="">
    <path id="path0" d="M 216.421 69.774 C 216.074 70.193 216.061 70.566 216.372 71.148 C 216.608 71.588 216.8 72.315 216.8 72.764 C 216.8 73.214 217.228 73.862 217.751 74.205 C 218.274 74.547 219.017 75.676 219.403 76.714 C 219.788 77.751 220.71 79.395 221.452 80.366 C 222.193 81.337 222.8 82.352 222.8 82.623 C 222.8 82.893 223.068 83.217 223.395 83.343 C 223.722 83.468 224.547 84.477 225.228 85.584 C 225.91 86.692 226.715 87.736 227.017 87.906 C 227.32 88.075 228.07 88.862 228.684 89.654 C 233.257 95.558 238.198 101.032 243.75 106.35 C 245.042 107.587 246.662 109.143 247.35 109.806 C 250.099 112.458 254.333 116.276 255.992 117.6 C 256.957 118.37 258.389 119.546 259.174 120.213 C 261.211 121.947 263.442 123.644 265.2 124.8 C 266.037 125.35 267.324 126.277 268.061 126.859 C 276.917 133.862 284.955 131.414 278.76 123.6 C 278.15 122.83 277.529 121.703 277.381 121.096 C 277.232 120.488 276.591 119.621 275.956 119.168 C 275.32 118.716 274.8 118.087 274.8 117.771 C 274.8 117.455 273.941 116.342 272.892 115.298 C 271.842 114.254 270.773 112.92 270.516 112.333 C 270.258 111.746 269.552 111.026 268.947 110.733 C 268.261 110.401 267.725 109.729 267.525 108.95 C 267.279 107.995 266.925 107.645 266.022 107.464 C 265.055 107.271 264.794 106.973 264.576 105.814 C 264.353 104.622 264.145 104.399 263.255 104.394 C 262.172 104.388 261.105 103.909 261.166 103.455 C 261.34 102.157 261.122 101.558 260.5 101.621 C 258.817 101.792 258.039 101.554 257.798 100.793 C 257.657 100.35 256.87 99.644 256.05 99.225 C 255.229 98.807 254.345 97.997 254.085 97.426 C 253.825 96.855 253.131 96.169 252.544 95.902 C 251.957 95.634 250.98 94.962 250.372 94.408 C 249.764 93.854 248.437 92.77 247.423 92 C 244.854 90.049 241.573 87.285 240.484 86.152 C 239.98 85.629 239.423 85.2 239.246 85.2 C 239.069 85.2 238.401 84.733 237.762 84.162 C 237.123 83.592 235.964 82.827 235.188 82.462 C 234.411 82.098 233.511 81.578 233.188 81.306 C 231.152 79.595 230.03 78.8 229.65 78.8 C 229.41 78.8 228.566 78.17 227.773 77.4 C 226.98 76.63 226.148 76 225.923 76 C 225.698 76 224.652 75.325 223.599 74.5 C 220.365 71.968 219.482 71.395 219.032 71.533 C 218.795 71.607 218.724 71.543 218.875 71.391 C 219.027 71.24 218.685 70.685 218.117 70.158 C 216.897 69.027 217.018 69.055 216.421 69.774 M 178.351 123.986 C 177.653 124.654 176.944 125.2 176.777 125.2 C 176.609 125.2 175.442 126.19 174.182 127.4 C 172.923 128.61 171.589 129.6 171.218 129.6 C 170.844 129.6 170.29 130.173 169.972 130.892 C 169.576 131.787 169.001 132.296 168.1 132.55 C 167.274 132.782 166.8 133.169 166.8 133.609 C 166.8 134.463 166.122 135.054 164.748 135.399 C 164.172 135.543 163.505 136.09 163.266 136.614 C 163.027 137.139 162.15 137.929 161.316 138.37 C 160.482 138.812 159.262 139.732 158.604 140.416 C 157.946 141.099 156.917 141.757 156.316 141.877 C 155.641 142.012 154.926 142.598 154.448 143.408 C 153.956 144.243 153.244 144.815 152.492 144.98 C 151.792 145.133 151.132 145.631 150.873 146.2 C 150.632 146.729 149.842 147.466 149.117 147.838 C 148.393 148.21 147.418 148.923 146.951 149.423 C 146.484 149.922 145.207 150.649 144.112 151.038 C 142.616 151.569 142.015 152.026 141.694 152.876 C 141.389 153.683 140.904 154.079 139.999 154.26 C 139.235 154.413 138.569 154.869 138.323 155.408 C 138.099 155.9 137.042 156.712 135.975 157.212 C 134.907 157.712 133.551 158.625 132.961 159.241 C 132.37 159.857 131.361 160.477 130.718 160.618 C 130.034 160.768 129.369 161.27 129.115 161.827 C 128.858 162.392 127.977 163.048 126.952 163.44 C 126 163.803 125.127 164.399 125.012 164.764 C 124.727 165.659 122.719 166.8 121.426 166.8 C 120.786 166.8 120.278 167.074 120.127 167.5 C 119.726 168.63 118.73 169.6 117.971 169.6 C 117.583 169.6 116.52 170.316 115.61 171.191 C 114.699 172.066 113.289 172.961 112.477 173.181 C 111.665 173.4 110.767 173.954 110.483 174.411 C 110.199 174.869 109.164 175.587 108.183 176.007 C 107.202 176.428 106.4 176.925 106.4 177.111 C 106.4 177.298 105.614 178.04 104.654 178.76 C 101.561 181.077 101.317 182.033 101.066 192.8 C 100.845 202.306 100.345 206.069 99.114 207.514 C 98.778 207.908 98.348 209.821 98.103 212.011 C 97.708 215.547 96.527 218.8 95.638 218.8 C 95.483 218.8 95.134 220.124 94.862 221.742 C 94.402 224.475 93.395 226.4 92.424 226.4 C 92.234 226.4 91.949 227.516 91.791 228.879 C 91.566 230.813 91.264 231.597 90.417 232.444 C 89.8 233.062 89.049 234.523 88.677 235.832 C 88.316 237.098 87.581 238.598 87.043 239.167 C 86.505 239.735 85.798 241.233 85.471 242.496 C 85.145 243.759 84.433 245.321 83.889 245.967 C 83.345 246.614 82.772 247.824 82.616 248.658 C 82.249 250.611 81.329 252.429 80.291 253.251 C 79.745 253.684 79.382 254.584 79.208 255.937 C 78.895 258.381 79.614 259.023 80.359 256.963 C 80.684 256.065 81.187 255.518 81.84 255.354 C 82.46 255.198 83.037 254.608 83.388 253.767 C 83.742 252.92 84.315 252.336 84.947 252.177 C 85.58 252.019 86.1 251.488 86.364 250.732 C 86.624 249.985 87.219 249.373 87.951 249.096 C 88.633 248.839 89.383 248.105 89.749 247.338 C 90.104 246.593 90.782 245.919 91.31 245.787 C 91.862 245.648 92.428 245.062 92.696 244.351 C 92.977 243.606 93.606 242.977 94.351 242.696 C 95.062 242.428 95.648 241.862 95.787 241.31 C 95.919 240.782 96.593 240.104 97.338 239.749 C 98.099 239.386 98.839 238.633 99.091 237.965 C 99.332 237.326 99.996 236.629 100.574 236.41 C 101.15 236.191 101.733 235.694 101.871 235.306 C 102.266 234.192 103.263 233.2 103.988 233.2 C 104.353 233.2 104.95 232.575 105.314 231.811 C 105.716 230.968 106.365 230.324 106.962 230.174 C 107.58 230.019 108.103 229.481 108.364 228.732 C 108.626 227.98 109.219 227.372 109.966 227.09 C 110.664 226.827 111.249 226.258 111.387 225.71 C 111.519 225.182 112.193 224.504 112.938 224.149 C 113.699 223.786 114.439 223.033 114.691 222.365 C 114.934 221.722 115.597 221.029 116.184 220.806 C 116.793 220.575 117.412 219.911 117.646 219.24 C 117.887 218.547 118.525 217.88 119.22 217.592 C 120.634 217.006 121.195 215.329 121.198 211.674 C 121.203 205.238 130.499 199.343 134.173 203.445 C 136.058 205.55 136.383 205.999 137.245 207.683 C 138.546 210.227 138.211 216.4 136.772 216.4 C 136.59 216.4 135.925 216.951 135.296 217.625 C 133.993 219.019 132.102 219.576 128.627 219.59 L 126.253 219.6 L 123.495 222.3 C 121.978 223.785 119.626 226.151 118.268 227.558 C 116.911 228.965 114.81 231.035 113.6 232.158 C 112.391 233.281 110.231 235.447 108.8 236.971 C 107.37 238.495 105.769 240.115 105.243 240.571 C 104.527 241.191 93.477 252.223 90.2 255.589 C 89.98 255.815 87.981 257.757 85.757 259.905 C 83.533 262.053 81.599 264.172 81.459 264.613 C 81.319 265.054 80.574 265.755 79.802 266.171 C 78.831 266.694 78.4 267.206 78.4 267.836 C 78.4 268.532 78.141 268.777 77.301 268.873 C 76.545 268.961 75.9 269.468 75.234 270.5 C 74.702 271.325 74.054 272 73.795 272 C 73.029 272 71.961 273.433 72.221 274.111 C 73.092 276.38 76.784 273.896 78.477 269.9 C 78.641 269.515 78.952 269.2 79.169 269.2 C 79.631 269.2 82.318 267.49 83.222 266.622 C 83.564 266.293 84.554 265.733 85.422 265.376 C 86.29 265.02 87.818 264.209 88.817 263.576 C 89.816 262.942 91.35 262.17 92.226 261.862 C 93.101 261.553 94.514 260.827 95.366 260.249 C 96.218 259.671 97.654 258.985 98.558 258.726 C 99.461 258.467 100.706 257.908 101.324 257.483 C 101.942 257.059 103.562 256.307 104.924 255.812 C 106.286 255.318 108.059 254.466 108.865 253.919 C 109.67 253.371 111.2 252.683 112.265 252.389 C 113.329 252.095 114.65 251.527 115.2 251.127 C 115.75 250.727 117.421 250.051 118.913 249.624 C 120.405 249.198 122.221 248.482 122.947 248.033 C 123.674 247.584 125.873 246.845 127.834 246.391 C 129.795 245.936 132.21 245.228 133.2 244.816 C 135.634 243.804 139.539 243.309 149.201 242.79 C 153.678 242.55 157.657 242.183 158.044 241.976 C 158.431 241.769 159.101 241.6 159.534 241.6 C 161.151 241.6 164.494 239.685 165.355 238.265 C 168.512 233.056 169.733 231.203 170.419 230.583 C 170.849 230.194 171.2 229.64 171.2 229.352 C 171.2 229.064 171.713 228.237 172.341 227.514 C 172.968 226.791 173.979 225.3 174.588 224.2 C 175.196 223.1 176.123 221.77 176.647 221.245 C 177.171 220.72 177.6 220.052 177.6 219.759 C 177.6 219.467 178.138 218.616 178.794 217.867 C 180.458 215.973 182.565 212.947 183.776 210.714 C 184.339 209.677 185.159 208.636 185.599 208.4 C 186.04 208.165 186.401 207.753 186.402 207.486 C 186.403 207.219 187.117 206.1 187.989 205 C 188.86 203.9 189.938 202.335 190.384 201.521 C 190.83 200.708 191.441 199.898 191.743 199.721 C 192.045 199.545 192.568 198.86 192.905 198.199 C 193.242 197.539 193.915 196.639 194.4 196.2 C 194.885 195.761 195.526 194.93 195.824 194.353 C 196.122 193.777 197.184 192.347 198.183 191.176 C 199.182 190.006 200 188.879 200 188.673 C 200 188.313 201.467 186.429 203.6 184.05 C 204.15 183.437 205.756 181.419 207.169 179.567 C 208.582 177.715 210.382 175.512 211.169 174.671 C 211.956 173.83 213.051 172.66 213.601 172.071 C 214.152 171.482 215.097 170.337 215.701 169.527 C 216.306 168.716 217.659 167.171 218.709 166.093 C 222.555 162.144 222.761 159.812 219.481 157.325 C 218.557 156.624 216.81 155.129 215.6 154.004 C 214.39 152.879 212.595 151.293 211.611 150.48 C 210.627 149.666 208.647 147.864 207.211 146.475 C 204.072 143.439 202.007 142.17 199.6 141.8 C 197.521 141.48 196.159 140.725 195.831 139.711 C 195.705 139.32 195.058 138.692 194.394 138.315 C 193.73 137.938 193.068 137.321 192.924 136.945 C 192.708 136.384 191.06 134.472 189.34 132.787 C 186.185 129.696 183.6 126.841 183.6 126.445 C 183.6 126.017 181.209 123.672 180.175 123.086 C 179.813 122.881 179.183 123.191 178.351 123.986 M 76.302 260.2 C 76.197 260.75 76.266 261.2 76.455 261.2 C 76.645 261.2 76.8 260.75 76.8 260.2 C 76.8 259.65 76.731 259.2 76.647 259.2 C 76.562 259.2 76.407 259.65 76.302 260.2" stroke="none" fill-rule="evenodd" style="fill: rgb(100, 100, 100);"/>
    <path id="path4" d="M 211.918 61.18 C 210.459 61.464 176.558 94.68 174.716 97.63 C 173.9 98.937 173.708 101.094 174.272 102.617 C 174.513 103.268 174.915 104.557 175.166 105.482 C 175.416 106.407 176.033 107.667 176.535 108.282 C 177.038 108.897 177.935 110.21 178.528 111.2 C 179.122 112.19 179.952 113.45 180.373 114 C 181.855 115.936 181.84 117.469 180.329 118.359 C 178.832 119.242 177.086 120.649 174.574 123 C 173.633 123.88 171.921 125.32 170.769 126.2 C 169.617 127.08 168.117 128.327 167.437 128.972 C 166.757 129.617 164.85 131.19 163.2 132.468 C 161.55 133.745 159.57 135.345 158.8 136.024 C 157.187 137.444 154.653 139.431 151.18 142 C 149.841 142.99 147.937 144.475 146.948 145.3 C 145.96 146.125 144.981 146.8 144.772 146.8 C 144.563 146.8 143.809 147.359 143.096 148.041 C 142.383 148.724 141.158 149.611 140.373 150.012 C 139.589 150.413 138.701 151.038 138.4 151.4 C 138.099 151.762 137.199 152.392 136.4 152.8 C 135.601 153.208 134.696 153.843 134.391 154.211 C 133.821 154.898 130.765 157.019 127.781 158.8 C 126.86 159.35 125.445 160.385 124.639 161.1 C 123.832 161.815 123.015 162.4 122.824 162.4 C 122.632 162.4 121.748 162.985 120.859 163.7 C 119.25 164.993 117.302 166.311 113.616 168.6 C 110.052 170.813 107.377 172.675 106.225 173.741 C 105.597 174.324 104.776 174.8 104.4 174.8 C 100.901 174.8 97.856 183.024 98.08 191.868 C 98.215 197.199 96.911 206.972 95.553 210.8 C 95.124 212.01 94.341 214.44 93.814 216.2 C 92.631 220.146 90.372 225.87 88.84 228.8 C 88.207 230.01 87.56 231.45 87.402 232 C 87.244 232.55 86.606 233.81 85.985 234.8 C 85.364 235.79 84.46 237.68 83.976 239 C 83.492 240.32 82.848 241.687 82.543 242.037 C 82.239 242.388 81.57 243.746 81.057 245.055 C 80.544 246.365 79.556 248.22 78.862 249.178 C 78.168 250.136 77.6 251.143 77.6 251.415 C 77.6 251.687 76.992 252.794 76.25 253.873 C 75.507 254.953 74.782 256.368 74.637 257.018 C 74.355 258.29 71.691 261.272 67.684 264.8 C 64.233 267.839 63.773 270.347 66.244 272.65 C 67.1 273.448 68.16 274.837 68.6 275.738 C 70.343 279.308 73.304 279.401 76.406 275.983 C 81.323 270.566 85.39 266.8 86.322 266.8 C 87.073 266.8 90.587 265.158 91.4 264.427 C 91.84 264.031 93.1 263.383 94.2 262.988 C 95.3 262.592 96.74 261.883 97.4 261.411 C 98.06 260.94 99.5 260.228 100.6 259.829 C 101.7 259.43 103.019 258.842 103.531 258.522 C 104.043 258.202 105.595 257.514 106.98 256.993 C 108.365 256.472 110.135 255.613 110.913 255.085 C 111.692 254.556 113.2 253.884 114.265 253.59 C 115.329 253.297 116.86 252.625 117.667 252.097 C 118.474 251.569 120.416 250.807 121.983 250.404 C 123.549 250.002 125.284 249.375 125.839 249.011 C 126.393 248.648 129.041 247.904 131.723 247.358 C 134.406 246.812 137.41 246.109 138.4 245.796 C 140.854 245.021 146.232 244.401 150.59 244.393 C 156.639 244.381 161.108 243.762 162.751 242.709 C 163.548 242.198 164.56 241.592 165 241.362 C 165.44 241.133 166.13 240.282 166.533 239.472 C 166.936 238.663 167.427 238 167.625 238 C 167.822 238 168.372 237.235 168.846 236.3 C 169.32 235.365 170.237 233.993 170.885 233.251 C 171.532 232.509 172.266 231.429 172.515 230.851 C 172.764 230.273 173.47 229.209 174.084 228.486 C 174.698 227.763 175.2 226.952 175.2 226.683 C 175.2 226.414 176.01 225.207 177 224 C 177.99 222.793 178.8 221.58 178.8 221.304 C 178.8 221.028 179.4 220.127 180.133 219.301 C 180.867 218.476 181.584 217.53 181.728 217.2 C 182.273 215.952 187.087 209.179 189.115 206.808 C 189.838 205.963 190.828 204.568 191.315 203.708 C 192.453 201.699 194.209 199.221 196.1 196.951 C 196.925 195.961 197.6 195.027 197.6 194.876 C 197.601 194.724 198.068 194.06 198.638 193.4 C 199.209 192.74 200.116 191.451 200.654 190.536 C 201.193 189.621 201.888 188.775 202.199 188.656 C 202.509 188.537 203.131 187.72 203.579 186.841 C 204.028 185.962 204.653 185.098 204.968 184.921 C 205.49 184.629 206.71 183.152 209.063 179.961 C 210.353 178.212 213.6 174.466 215.3 172.764 C 216.125 171.938 216.8 171.057 216.8 170.806 C 216.8 170.554 217.33 169.902 217.979 169.357 C 218.627 168.811 219.26 168.042 219.385 167.646 C 219.511 167.251 220.038 166.701 220.558 166.422 C 221.078 166.144 221.844 165.27 222.26 164.48 C 222.676 163.689 223.856 162.44 224.881 161.703 L 226.746 160.364 L 228.673 161.77 C 229.733 162.544 231.05 163.509 231.6 163.915 C 236.137 167.267 241.604 169.039 243.839 167.883 C 244.49 167.547 252.217 160.096 261.011 151.327 C 269.805 142.557 278.063 134.576 279.363 133.591 C 283.927 130.132 284.077 126.423 279.894 120.544 C 279.402 119.853 278.687 118.773 278.305 118.144 C 277.923 117.515 276.98 116.19 276.209 115.2 C 275.439 114.21 274.222 112.606 273.504 111.635 C 272.787 110.665 271.66 109.289 271 108.579 C 270.34 107.868 268.9 106.147 267.8 104.755 C 266.7 103.362 264.36 100.751 262.6 98.953 C 260.84 97.154 258.488 94.719 257.373 93.541 C 254.647 90.662 248.931 85.484 247.999 85.049 C 247.585 84.856 245.703 82.922 243.815 80.75 C 241.928 78.578 239.622 76.307 238.692 75.703 C 237.761 75.099 235.575 73.434 233.832 72.003 C 230.552 69.308 229.198 68.391 225.8 66.566 C 224.7 65.976 223.08 65.004 222.2 64.407 C 221.32 63.81 220.066 63.191 219.413 63.031 C 218.76 62.872 217.303 62.304 216.174 61.771 C 215.046 61.237 213.96 60.821 213.761 60.846 C 213.563 60.871 212.733 61.022 211.918 61.18 M 218.117 70.158 C 218.685 70.685 219.027 71.24 218.875 71.391 C 218.724 71.543 218.795 71.607 219.032 71.533 C 219.482 71.395 220.365 71.968 223.599 74.5 C 224.652 75.325 225.698 76 225.923 76 C 226.148 76 226.98 76.63 227.773 77.4 C 228.566 78.17 229.41 78.8 229.65 78.8 C 230.03 78.8 231.152 79.595 233.188 81.306 C 233.511 81.578 234.411 82.098 235.188 82.462 C 235.964 82.827 237.123 83.592 237.762 84.162 C 238.401 84.733 239.069 85.2 239.246 85.2 C 239.423 85.2 239.98 85.629 240.484 86.152 C 241.573 87.285 244.854 90.049 247.423 92 C 248.437 92.77 249.764 93.854 250.372 94.408 C 250.98 94.962 251.957 95.634 252.544 95.902 C 253.131 96.169 253.825 96.855 254.085 97.426 C 254.345 97.997 255.229 98.807 256.05 99.225 C 256.87 99.644 257.657 100.35 257.798 100.793 C 258.039 101.554 258.817 101.792 260.5 101.621 C 261.122 101.558 261.34 102.157 261.166 103.455 C 261.105 103.909 262.172 104.388 263.255 104.394 C 264.145 104.399 264.353 104.622 264.576 105.814 C 264.794 106.973 265.055 107.271 266.022 107.464 C 266.925 107.645 267.279 107.995 267.525 108.95 C 267.725 109.729 268.261 110.401 268.947 110.733 C 269.552 111.026 270.258 111.746 270.516 112.333 C 270.773 112.92 271.842 114.254 272.892 115.298 C 273.941 116.342 274.8 117.455 274.8 117.771 C 274.8 118.087 275.32 118.716 275.956 119.168 C 276.591 119.621 277.232 120.488 277.381 121.096 C 277.529 121.703 278.15 122.83 278.76 123.6 C 284.955 131.414 276.917 133.862 268.061 126.859 C 267.324 126.277 266.037 125.35 265.2 124.8 C 263.442 123.644 261.211 121.947 259.174 120.213 C 258.389 119.546 256.957 118.37 255.992 117.6 C 254.333 116.276 250.099 112.458 247.35 109.806 C 246.662 109.143 245.042 107.587 243.75 106.35 C 238.198 101.032 233.257 95.558 228.684 89.654 C 228.07 88.862 227.32 88.075 227.017 87.906 C 226.715 87.736 225.91 86.692 225.228 85.584 C 224.547 84.477 223.722 83.468 223.395 83.343 C 223.068 83.217 222.8 82.893 222.8 82.623 C 222.8 82.352 222.193 81.337 221.452 80.366 C 220.71 79.395 219.788 77.751 219.403 76.714 C 219.017 75.676 218.274 74.547 217.751 74.205 C 217.228 73.862 216.8 73.214 216.8 72.764 C 216.8 72.315 216.608 71.588 216.372 71.148 C 216.061 70.566 216.074 70.193 216.421 69.774 C 217.018 69.055 216.897 69.027 218.117 70.158 M 182.164 124.71 C 182.954 125.43 183.6 126.211 183.6 126.445 C 183.6 126.841 186.185 129.696 189.34 132.787 C 191.06 134.472 192.708 136.384 192.924 136.945 C 193.068 137.321 193.73 137.938 194.394 138.315 C 195.058 138.692 195.705 139.32 195.831 139.711 C 196.159 140.725 197.521 141.48 199.6 141.8 C 202.007 142.17 204.072 143.439 207.211 146.475 C 208.647 147.864 210.627 149.666 211.611 150.48 C 212.595 151.293 214.39 152.879 215.6 154.004 C 216.81 155.129 218.557 156.624 219.481 157.325 C 222.761 159.812 222.555 162.144 218.709 166.093 C 217.659 167.171 216.306 168.716 215.701 169.527 C 215.097 170.337 214.152 171.482 213.601 172.071 C 213.051 172.66 211.956 173.83 211.169 174.671 C 210.382 175.512 208.582 177.715 207.169 179.567 C 205.756 181.419 204.15 183.437 203.6 184.05 C 201.467 186.429 200 188.313 200 188.673 C 200 188.879 199.182 190.006 198.183 191.176 C 197.184 192.347 196.122 193.777 195.824 194.353 C 195.526 194.93 194.885 195.761 194.4 196.2 C 193.915 196.639 193.242 197.539 192.905 198.199 C 192.568 198.86 192.045 199.545 191.743 199.721 C 191.441 199.898 190.83 200.708 190.384 201.521 C 189.938 202.335 188.86 203.9 187.989 205 C 187.117 206.1 186.403 207.219 186.402 207.486 C 186.401 207.753 186.04 208.165 185.599 208.4 C 185.159 208.636 184.339 209.677 183.776 210.714 C 182.565 212.947 180.458 215.973 178.794 217.867 C 178.138 218.616 177.6 219.467 177.6 219.759 C 177.6 220.052 177.171 220.72 176.647 221.245 C 176.123 221.77 175.196 223.1 174.588 224.2 C 173.979 225.3 172.968 226.791 172.341 227.514 C 171.713 228.237 171.2 229.064 171.2 229.352 C 171.2 229.64 170.849 230.194 170.419 230.583 C 169.733 231.203 168.512 233.056 165.355 238.265 C 164.494 239.685 161.151 241.6 159.534 241.6 C 159.101 241.6 158.431 241.769 158.044 241.976 C 157.657 242.183 153.678 242.55 149.201 242.79 C 139.539 243.309 135.634 243.804 133.2 244.816 C 132.21 245.228 129.795 245.936 127.834 246.391 C 125.873 246.845 123.674 247.584 122.947 248.033 C 122.221 248.482 120.405 249.198 118.913 249.624 C 117.421 250.051 115.75 250.727 115.2 251.127 C 114.65 251.527 113.329 252.095 112.265 252.389 C 111.2 252.683 109.67 253.371 108.865 253.919 C 108.059 254.466 106.286 255.318 104.924 255.812 C 103.562 256.307 101.942 257.059 101.324 257.483 C 100.706 257.908 99.461 258.467 98.558 258.726 C 97.654 258.985 96.218 259.671 95.366 260.249 C 94.514 260.827 93.101 261.553 92.226 261.862 C 91.35 262.17 89.816 262.942 88.817 263.576 C 87.818 264.209 86.29 265.02 85.422 265.376 C 84.554 265.733 83.564 266.293 83.222 266.622 C 82.318 267.49 79.631 269.2 79.169 269.2 C 78.952 269.2 78.641 269.515 78.477 269.9 C 76.784 273.896 73.092 276.38 72.221 274.111 C 71.961 273.433 73.029 272 73.795 272 C 74.054 272 74.702 271.325 75.234 270.5 C 75.9 269.468 76.545 268.961 77.301 268.873 C 78.141 268.777 78.4 268.532 78.4 267.836 C 78.4 267.206 78.831 266.694 79.802 266.171 C 80.574 265.755 81.319 265.054 81.459 264.613 C 81.599 264.172 83.533 262.053 85.757 259.905 C 87.981 257.757 89.98 255.815 90.2 255.589 C 93.477 252.223 104.527 241.191 105.243 240.571 C 105.769 240.115 107.37 238.495 108.8 236.971 C 110.231 235.447 112.391 233.281 113.6 232.158 C 114.81 231.035 116.911 228.965 118.268 227.558 C 119.626 226.151 121.978 223.785 123.495 222.3 L 126.253 219.6 L 128.627 219.59 C 132.102 219.576 133.993 219.019 135.296 217.625 C 135.925 216.951 136.59 216.4 136.772 216.4 C 138.211 216.4 138.546 210.227 137.245 207.683 C 136.383 205.999 136.058 205.55 134.173 203.445 C 130.499 199.343 121.203 205.238 121.198 211.674 C 121.195 215.329 120.634 217.006 119.22 217.592 C 118.525 217.88 117.887 218.547 117.646 219.24 C 117.412 219.911 116.793 220.575 116.184 220.806 C 115.597 221.029 114.934 221.722 114.691 222.365 C 114.439 223.033 113.699 223.786 112.938 224.149 C 112.193 224.504 111.519 225.182 111.387 225.71 C 111.249 226.258 110.664 226.827 109.966 227.09 C 109.219 227.372 108.626 227.98 108.364 228.732 C 108.103 229.481 107.58 230.019 106.962 230.174 C 106.365 230.324 105.716 230.968 105.314 231.811 C 104.95 232.575 104.353 233.2 103.988 233.2 C 103.263 233.2 102.266 234.192 101.871 235.306 C 101.733 235.694 101.15 236.191 100.574 236.41 C 99.996 236.629 99.332 237.326 99.091 237.965 C 98.839 238.633 98.099 239.386 97.338 239.749 C 96.593 240.104 95.919 240.782 95.787 241.31 C 95.648 241.862 95.062 242.428 94.351 242.696 C 93.606 242.977 92.977 243.606 92.696 244.351 C 92.428 245.062 91.862 245.648 91.31 245.787 C 90.782 245.919 90.104 246.593 89.749 247.338 C 89.383 248.105 88.633 248.839 87.951 249.096 C 87.219 249.373 86.624 249.985 86.364 250.732 C 86.1 251.488 85.58 252.019 84.947 252.177 C 84.315 252.336 83.742 252.92 83.388 253.767 C 83.037 254.608 82.46 255.198 81.84 255.354 C 81.187 255.518 80.684 256.065 80.359 256.963 C 79.614 259.023 78.895 258.381 79.208 255.937 C 79.382 254.584 79.745 253.684 80.291 253.251 C 81.329 252.429 82.249 250.611 82.616 248.658 C 82.772 247.824 83.345 246.614 83.889 245.967 C 84.433 245.321 85.145 243.759 85.471 242.496 C 85.798 241.233 86.505 239.735 87.043 239.167 C 87.581 238.598 88.316 237.098 88.677 235.832 C 89.049 234.523 89.8 233.062 90.417 232.444 C 91.264 231.597 91.566 230.813 91.791 228.879 C 91.949 227.516 92.234 226.4 92.424 226.4 C 93.395 226.4 94.402 224.475 94.862 221.742 C 95.134 220.124 95.483 218.8 95.638 218.8 C 96.527 218.8 97.708 215.547 98.103 212.011 C 98.348 209.821 98.778 207.908 99.114 207.514 C 100.345 206.069 100.845 202.306 101.066 192.8 C 101.317 182.033 101.561 181.077 104.654 178.76 C 105.614 178.04 106.4 177.298 106.4 177.111 C 106.4 176.925 107.202 176.428 108.183 176.007 C 109.164 175.587 110.199 174.869 110.483 174.411 C 110.767 173.954 111.665 173.4 112.477 173.181 C 113.289 172.961 114.699 172.066 115.61 171.191 C 116.52 170.316 117.583 169.6 117.971 169.6 C 118.73 169.6 119.726 168.63 120.127 167.5 C 120.278 167.074 120.786 166.8 121.426 166.8 C 122.719 166.8 124.727 165.659 125.012 164.764 C 125.127 164.399 126 163.803 126.952 163.44 C 127.977 163.048 128.858 162.392 129.115 161.827 C 129.369 161.27 130.034 160.768 130.718 160.618 C 131.361 160.477 132.37 159.857 132.961 159.241 C 133.551 158.625 134.907 157.712 135.975 157.212 C 137.042 156.712 138.099 155.9 138.323 155.408 C 138.569 154.869 139.235 154.413 139.999 154.26 C 140.904 154.079 141.389 153.683 141.694 152.876 C 142.015 152.026 142.616 151.569 144.112 151.038 C 145.207 150.649 146.484 149.922 146.951 149.423 C 147.418 148.923 148.393 148.21 149.117 147.838 C 149.842 147.466 150.632 146.729 150.873 146.2 C 151.132 145.631 151.792 145.133 152.492 144.98 C 153.244 144.815 153.956 144.243 154.448 143.408 C 154.926 142.598 155.641 142.012 156.316 141.877 C 156.917 141.757 157.946 141.099 158.604 140.416 C 159.262 139.732 160.482 138.812 161.316 138.37 C 162.15 137.929 163.027 137.139 163.266 136.614 C 163.505 136.09 164.172 135.543 164.748 135.399 C 166.122 135.054 166.8 134.463 166.8 133.609 C 166.8 133.169 167.274 132.782 168.1 132.55 C 169.001 132.296 169.576 131.787 169.972 130.892 C 170.29 130.173 170.844 129.6 171.218 129.6 C 171.589 129.6 172.923 128.61 174.182 127.4 C 175.442 126.19 176.609 125.2 176.777 125.2 C 176.944 125.2 177.653 124.654 178.351 123.986 C 179.757 122.643 179.937 122.677 182.164 124.71 M 133.374 206.62 C 136.836 208.888 137.316 212.72 134.5 215.608 C 132.443 217.717 132.028 217.827 126.755 217.668 L 124.509 217.6 L 124.619 213.7 C 124.73 209.719 125.097 208.101 126.058 207.337 C 127.729 206.012 131.832 205.609 133.374 206.62 M 76.8 260.2 C 76.8 260.75 76.645 261.2 76.455 261.2 C 76.266 261.2 76.197 260.75 76.302 260.2 C 76.407 259.65 76.562 259.2 76.647 259.2 C 76.731 259.2 76.8 259.65 76.8 260.2" stroke="none" fill-rule="evenodd" style="fill: rgb(100, 100, 100);"/>
  </g>
</svg>